<?xml version="1.0" encoding="UTF-8"?>
<svg id="Livello_1" data-name="Livello 1" xmlns="http://www.w3.org/2000/svg" viewBox="0 0 374.41 475.93">
  <defs>
    <style>
      .cls-1 {
        fill: #fff;
      }
    </style>
  </defs>
  <path class="cls-1" d="M250.43,48.9c-3.65.21-6.36-2.71-9.72-3.76s-7.24.45-10.3-2.69c-4.78-4.92,1.44-13.83-5.05-17.95-8.02-5.1-26.16-9.27-35.85-13.11S167.28-1.92,156.47.35c-8.53,1.79-41.78,26.72-45.29,34.66-1.9,4.3-1.71,8.79-1.6,13.39.04,1.68,1.14,3.49,1.02,5.01-.18,2.33-5.2,3.84-6.9,6.04-7.3.86-8.95-14.53-10.61-14.53-2.03,2.24-4.96,3-7.41,4.56-6.1,3.89-19.19,13.69-24.53,18.44-13.6,12.1,5.52,24.12-10.88,30.9-4.14-.68-2.2-15.83-10.36-11.16-8.74,8.26-20.09,15.23-28.76,23.22-4.68,4.31-8.51,7.91-9.38,14.61-1.58,12.14,1.64,29.36,1.95,41.87,1.69,67.35-10.03,136.84,1.2,203.79,1.56,9.28,3.33,19.93,10.41,26.58,17.97,16.9,66.17,40.61,89.73,50.18,26.37,10.71,73.07,26.17,100.93,27.96,16.82,1.08,39.43-16.79,53.35-26.57,36.24-25.46,69.12-55.55,103.53-83.37,9.96-10.41,8.24-23.36,9.45-36.54,4.43-48.18.71-98.53-1.01-146.93-.62-17.4-1.09-34.72-2.03-52.03-.76-14.02,1.36-38.79-8.1-49.89-4.28-5.03-11.93-7.23-17.5-10.48-4.43-2.58-19.89-13.08-23.05-13.94-1.73-.47-5.54-.82-6.18,1.39l1.91,16.37c-5.39-3.79-15.18-4.58-16.77-11.71-1.48-6.65,2.39-11.2-4.17-16.82-3.44-2.94-32.98-14.21-37.5-14.54-9.7-.7-8.97,11.18-7.49,18.06Z"/>
  <path d="M250.43,48.9c-1.48-6.88-2.2-18.76,7.49-18.06,4.52.33,34.06,11.6,37.5,14.54,6.56,5.62,2.7,10.17,4.17,16.82,1.58,7.13,11.38,7.92,16.77,11.71l-1.91-16.37c.63-2.21,4.44-1.86,6.18-1.39,3.16.86,18.62,11.35,23.05,13.94,5.57,3.25,13.22,5.45,17.5,10.48,9.46,11.1,7.34,35.87,8.1,49.89.94,17.31,1.41,34.63,2.03,52.03,1.72,48.4,5.44,98.75,1.01,146.93-1.21,13.18.51,26.13-9.45,36.54-34.41,27.82-67.29,57.91-103.53,83.37-13.92,9.78-36.52,27.65-53.35,26.57-27.86-1.79-74.56-17.25-100.93-27.96-23.56-9.57-71.76-33.28-89.73-50.18-7.08-6.65-8.85-17.3-10.41-26.58-11.24-66.95.48-136.45-1.2-203.79-.31-12.52-3.53-29.74-1.95-41.87.87-6.7,4.7-10.3,9.38-14.61,8.67-7.99,20.02-14.96,28.76-23.22,8.16-4.67,6.22,10.48,10.36,11.16,16.41-6.78-2.72-18.8,10.88-30.9,5.34-4.75,18.44-14.55,24.53-18.44,2.45-1.56,5.38-2.32,7.41-4.56,1.66,0,3.32,15.38,10.61,14.53,1.7-2.2,6.72-3.71,6.9-6.04.12-1.53-.98-3.33-1.02-5.01-.11-4.6-.3-9.09,1.6-13.39,3.5-7.94,36.76-32.87,45.29-34.66,10.81-2.27,22.95,7.04,33.04,11.04s27.83,8.01,35.85,13.11c6.49,4.12.26,13.03,5.05,17.95,3.06,3.14,7.09,1.7,10.3,2.69s6.07,3.97,9.72,3.76ZM148.54,17.91c-2.07-2.14-21.21,11.8-23.4,15.07-7.73,11.52,5.54,14.31,1.67,23.68-.81,1.97-6.3,6.95-8.22,8.77-3.45,3.27-17.73,15.54-21.49,15.54-8.11,0-9.51-12.38-12.09-12.98-3.74,1.48-9.59,3.57-12.39,6.42-7.57,7.69-.59,13.02-.26,21.26.46,11.28-7.72,14.72-14.74,20.73-5.65,4.84-12.77,16.34-19.98,6.02-1.56-2.24-2.43-8.46-5.44-8.52-5.34,1.73-10.35,4.86-13.09,9.95-2.08,24.94-3.46,49.92,1.54,74.57-5.63,51.19-6.45,105.57.14,156.86.45,3.49,1.16,7.32,2.37,10.62l119.38-88.99-107.89,114.46c40.29,29.32,88.05,50.57,136.63,62.26,9.77,2.35,32.61,7.58,41.63,6.21,6.86-1.04,24.73-13.98,31.44-18.53,29.77-20.18,65.8-47.44,92.01-71.9,2.17-2.03,9.46-8.43,9-10.99-36.27-14.06-71.26-31.11-105.59-49.35l-33.29-20.16c48.45,19.1,97.65,36.1,147.21,52.16.81.26,1.24,1.53,2.17-.14,2.25-4.09,1.19-14.54,1.48-19.52,1.54-26.22.88-52.68,1.03-79.05l-6.08-80.92c-2.2-21.01.9-44.3-1.09-64.91-1.19-12.32-7.33-18.61-19.9-19.22l-6.42,15.5c-6.37-4.08-29.01-10.35-31.96-16.93-2.13-4.75,1.43-11.12-3.97-17.03-2.93-3.2-22.66-10.27-27.03-10.03-8.27.45-2.93,13.83-3.49,19.08-2.73,2.76-33.57-13-36.03-16.43-3.05-4.25,1.22-12.8-.9-15.07l-43.46-18.5-26.49,203c.75-10.91-2.3-21.71-3-32.5-1.62-25.05-.04-50.04.03-74.95.1-31.84-.15-63.7-.05-95.54Z"/>
  <path class="cls-1" d="M148.54,17.91c-.11,31.83.14,63.69.05,95.54-.07,24.91-1.65,49.9-.03,74.95.7,10.8,3.75,21.59,3,32.5l26.49-203,43.46,18.5c2.13,2.27-2.15,10.82.9,15.07,2.47,3.44,33.31,19.2,36.03,16.43.55-5.25-4.79-18.64,3.49-19.08,4.37-.24,24.11,6.83,27.03,10.03,5.4,5.9,1.84,12.28,3.97,17.03,2.95,6.58,25.6,12.85,31.96,16.93l6.42-15.5c12.57.62,18.72,6.91,19.9,19.22,1.99,20.61-1.12,43.9,1.09,64.91l6.08,80.92c-.15,26.37.51,52.83-1.03,79.05-.29,4.98.77,15.42-1.48,19.52-.92,1.68-1.36.41-2.17.14-49.56-16.06-98.76-33.06-147.21-52.16l33.29,20.16c34.33,18.24,69.32,35.29,105.59,49.35.47,2.56-6.83,8.96-9,10.99-26.21,24.46-62.24,51.72-92.01,71.9-6.71,4.55-24.59,17.48-31.44,18.53-9.02,1.37-31.86-3.86-41.63-6.21-48.59-11.7-96.35-32.95-136.63-62.26l107.89-114.46-119.38,88.99c-1.21-3.3-1.92-7.13-2.37-10.62-6.59-51.3-5.77-105.68-.14-156.86-5-24.64-3.61-49.62-1.54-74.57,2.73-5.09,7.75-8.22,13.09-9.95,3.01.05,3.88,6.28,5.44,8.52,7.21,10.32,14.33-1.18,19.98-6.02,7.02-6.01,15.19-9.45,14.74-20.73-.33-8.24-7.31-13.57.26-21.26,2.8-2.85,8.66-4.94,12.39-6.42,2.58.59,3.98,12.98,12.09,12.98,3.77,0,18.04-12.27,21.49-15.54,1.91-1.81,7.41-6.8,8.22-8.77,3.87-9.37-9.4-12.16-1.67-23.68,2.19-3.26,21.33-17.21,23.4-15.07ZM113.24,139.27c-15.43.13-33.71,27.27-23.64,40.13,10.84,13.85,29.61-3.24,34.16-14.79,3.75-9.52,2.73-25.45-10.52-25.33ZM248.15,178.12c-2.3.52-4.77,3-6.14,4.86-13.49,18.18,11.88,52.89,32.54,52.38,21.39-.53,18.51-25.2,10.27-38.35-6.46-10.3-24.17-21.7-36.66-18.88ZM82.36,196.13c-17.3,2.45-31.09,30.11-17.78,42.32,11.54,10.6,26.65-6.09,30.18-16.88,3.28-10.04,1.67-27.43-12.4-25.44ZM53.4,263.1c-3.64.51-11.61,5.13-14.29,7.77-7.22,7.13-13.25,27.41-4.98,35.06,15.15,14,39.88-18.82,30.69-36.72-2.2-4.29-6.55-6.79-11.42-6.11ZM171.26,307.15c-7.44.46-20.86,7.52-22.49,15.48-.99,4.81-1.12,9.62,2.83,12.7,16.38,12.76,50.3-3.78,36.89-20.93-3.14-4.01-12.25-7.57-17.23-7.26ZM274.16,356.15c-12.42,1.99-28.9,19.54-13.68,29.21,11.05,7.02,37.72.27,39.72-14.22,1.74-12.63-16.62-16.49-26.04-14.99ZM193.25,367.17c-11.76,1.59-27.84,14.73-16.73,26.23,7.72,8,20.57,6.37,29.63,1.68,21.8-11.29,9.24-30.9-12.9-27.91ZM90.92,401.59c8.69,10.32,32.13,4.88,39.63-5.19,10.46-14.04-7.94-23.04-20.39-21.4-10.91,1.43-29.15,14.83-19.24,26.6ZM208.3,424.14c-11.27.74-31.91,12-22.79,25.27s32.95,8.03,40.8-4.16c8.83-13.72-5.35-21.94-18.01-21.11Z"/>
  <path d="M248.15,178.12c12.49-2.83,30.21,8.58,36.66,18.88,8.24,13.15,11.13,37.82-10.27,38.35-20.66.51-46.03-34.2-32.54-52.38,1.37-1.85,3.84-4.34,6.14-4.86Z"/>
  <path d="M113.24,139.27c13.25-.11,14.27,15.81,10.52,25.33-4.55,11.55-23.31,28.65-34.16,14.79-10.07-12.86,8.2-39.99,23.64-40.13Z"/>
  <path d="M82.36,196.13c14.06-1.99,15.68,15.4,12.4,25.44-3.53,10.79-18.64,27.48-30.18,16.88-13.31-12.22.48-39.88,17.78-42.32Z"/>
  <path d="M53.4,263.1c4.87-.69,9.22,1.82,11.42,6.11,9.2,17.9-15.54,50.72-30.69,36.72-8.27-7.65-2.24-27.92,4.98-35.06,2.68-2.64,10.65-7.26,14.29-7.77Z"/>
  <path d="M208.3,424.14c12.65-.83,26.84,7.39,18.01,21.11-7.84,12.19-32.1,16.8-40.8,4.16-9.12-13.27,11.52-24.53,22.79-25.27Z"/>
  <path d="M274.16,356.15c9.41-1.51,27.78,2.36,26.04,14.99-2,14.5-28.66,21.24-39.72,14.22-15.22-9.67,1.26-27.22,13.68-29.21Z"/>
  <path d="M90.92,401.59c-9.91-11.77,8.34-25.17,19.24-26.6,12.45-1.63,30.85,7.37,20.39,21.4-7.5,10.07-30.95,15.51-39.63,5.19Z"/>
  <path d="M193.25,367.17c22.14-2.98,34.7,16.63,12.9,27.91-9.06,4.69-21.91,6.32-29.63-1.68-11.1-11.5,4.97-24.65,16.73-26.23Z"/>
  <path d="M171.26,307.15c4.99-.31,14.1,3.25,17.23,7.26,13.41,17.15-20.51,33.69-36.89,20.93-3.96-3.08-3.82-7.89-2.83-12.7,1.63-7.96,15.05-15.02,22.49-15.48Z"/>
</svg>